<svg xmlns="http://www.w3.org/2000/svg" xmlns:xlink="http://www.w3.org/1999/xlink" preserveAspectRatio="xMidYMid" width="387" height="296" viewBox="0 0 387 296">
<g>
	<path fill="#FFFFFF" stroke="#400D13" stroke-width="6" stroke-miterlimit="3.8637" d="M261.6,246.1c-1.6-3.2-0.6-7.1,2.4-9.1
		c-4.8-9.3-9.4-17.6-13.7-24.9c-27.3,13.4-54.7,13.3-61.7-0.4c-6.8-13.4-3.6-29.9,7-43.8c-13.2-2.1-25.4-9.3-33.6-20.6l0.6,8.8
		L17,233.4l-2.2-1.1L4.4,187.6l147.8-71.8c0.5-18.3,10.7-35.8,28.2-44.7c22.9-11.7,50.5-4.6,65.1,15.6l1.9-17.7l132-65l2.3,1.1
		l-25.4,49.4l-101.6,53.5c2,11.1,0.3,22.5-4.7,32.4c17.5-0.5,32.9,6.6,39.8,20c7,13.7-9.1,35.9-36,50.1c3.4,7.7,7.4,16.4,12.1,25.7
		c3.2-1,6.9,0.4,8.5,3.5c1.8,3.5,0.4,7.8-3.1,9.5C267.7,251,263.4,249.6,261.6,246.1L261.6,246.1z"/>
	<polygon fill="#FFFFFF" points="242.9,111.7 247.4,68.9 379.3,3.8 381.6,4.9 356.2,54.3 245.1,112.8 242.9,111.7 	"/>
	<g>
		<defs>
			<polygon id="SVGID_1_" points="242.9,111.7 247.4,68.9 379.3,3.8 381.6,4.9 356.2,54.3 245.1,112.8 242.9,111.7 			"/>
		</defs>
		<clipPath id="SVGID_2_">
			<use xlink:href="#SVGID_1_"  overflow="visible"/>
		</clipPath>
		<polygon clip-path="url(#SVGID_2_)" fill="#BAC7BF" stroke="#400D13" stroke-miterlimit="3.8637" points="245.7,113.3 250.1,70.5 
			382.1,5.4 356.7,54.8 245.7,113.3 		"/>
	</g>
	<polygon fill="none" stroke="#400D13" stroke-width="2" stroke-miterlimit="3.8637" points="242.9,111.7 247.4,68.9 379.3,3.8 
		381.6,4.9 356.2,54.3 245.1,112.8 242.9,111.7 	"/>
	<path fill="#FFFFFF" d="M157.8,140.4C144.9,115,155,84,180.4,71s56.5-2.8,69.4,22.6c12.9,25.4,2.8,56.5-22.5,69.4
		C201.9,175.9,170.8,165.8,157.8,140.4L157.8,140.4z"/>
	<g>
		<defs>
			<path id="SVGID_3_" d="M157.8,140.4C144.9,115,155,84,180.4,71s56.5-2.8,69.4,22.6c12.9,25.4,2.8,56.5-22.5,69.4
				C201.9,175.9,170.8,165.8,157.8,140.4L157.8,140.4z"/>
		</defs>
		<clipPath id="SVGID_4_">
			<use xlink:href="#SVGID_3_"  overflow="visible"/>
		</clipPath>
		<path clip-path="url(#SVGID_4_)" fill="#BAC7BF" d="M160.5,120.6c45.5,34.3,93.5-3.7,93.7-12.7c6.5,2.2,1.3,6.4,1.3,6.4l-0.2,7.5
			l-1.5,8.3l-2,6.1l-3.3,6.7l-43,27.5l-10.3-1.8L188,166l-5.9-2.3l-6.7-3.7l-6.4-5l-8.6-7.6l-5.5-7.6l2.6-17L160.5,120.6
			L160.5,120.6z"/>
	</g>
	<path fill="none" stroke="#400D13" stroke-width="2" stroke-miterlimit="3.8637" d="M157.8,140.4C144.9,115,155,84,180.4,71
		s56.5-2.8,69.4,22.6c12.9,25.4,2.8,56.5-22.5,69.4C201.9,175.9,170.8,165.8,157.8,140.4L157.8,140.4z"/>
	<path fill="#FFFFFF" d="M289.7,160.2c7.1,13.9-9.8,36.8-37.7,51c-27.9,14.2-56.3,14.4-63.4,0.5c-10.7-20.9,3.3-49.4,31.2-63.6
		C247.7,133.9,279,139.3,289.7,160.2L289.7,160.2z"/>
	<g>
		<defs>
			<path id="SVGID_5_" d="M289.7,160.2c7.1,13.9-9.8,36.8-37.7,51c-27.9,14.2-56.3,14.4-63.4,0.5c-10.7-20.9,3.3-49.4,31.2-63.6
				C247.7,133.9,279,139.3,289.7,160.2L289.7,160.2z"/>
		</defs>
		<clipPath id="SVGID_6_">
			<use xlink:href="#SVGID_5_"  overflow="visible"/>
		</clipPath>
		<path clip-path="url(#SVGID_6_)" fill="#BAC7BF" d="M189.6,194.2c5.3-11.6,18.7-24.3,36.7-33.5c27.9-14.2,56.3-14.4,63.4-0.5
			c6,11.8-5.2,30.1-25.7,44C254.9,186.5,224.2,183.2,189.6,194.2L189.6,194.2z"/>
	</g>
	<path fill="none" stroke="#400D13" stroke-width="2" stroke-miterlimit="3.8637" d="M289.7,160.2c7.1,13.9-9.8,36.8-37.7,51
		c-27.9,14.2-56.3,14.4-63.4,0.5c-10.7-20.9,3.3-49.4,31.2-63.6C247.7,133.9,279,139.3,289.7,160.2L289.7,160.2z"/>
	<path fill="none" stroke="#400D13" stroke-width="1.0001" stroke-miterlimit="3.8637" d="M196.1,201.7
		c-5.7-11.2,7.8-29.4,30.1-40.8c22.3-11.4,45-11.5,50.7-0.4c5.7,11.2-7.8,29.4-30.1,40.8C224.5,212.7,201.8,212.9,196.1,201.7
		L196.1,201.7z M201.9,193.2c-4.5-8.9,6.2-23.5,24.1-32.6c17.9-9.1,36-9.2,40.6-0.3c4.5,8.9-6.2,23.5-24.1,32.6
		C224.6,202,206.5,202.1,201.9,193.2L201.9,193.2z M206.8,186.8c-3.6-7.1,5-18.8,19.3-26.1c14.3-7.3,28.8-7.4,32.4-0.2
		c3.6,7.1-5,18.8-19.3,26.1C225,193.8,210.4,193.9,206.8,186.8L206.8,186.8z M210.8,181.9c-2.9-5.7,4-15.1,15.4-20.9
		c11.4-5.8,23-5.9,26-0.2c2.9,5.7-4,15.1-15.4,20.9C225.4,187.5,213.7,187.6,210.8,181.9L210.8,181.9z M214.3,178.5
		c-2.3-4.6,3.2-12.1,12.3-16.7c9.1-4.7,18.4-4.7,20.8-0.2c2.3,4.6-3.2,12.1-12.3,16.7C225.9,183,216.6,183,214.3,178.5L214.3,178.5z
		"/>
	<path fill="#FFFFFF" d="M218,175.5c-1.8-3.5,2.4-9.1,9.4-12.7c6.9-3.5,14-3.6,15.8-0.1c1,2,0,4.8-2.4,7.5
		c0.1,8.1,8.3,32.9,25.8,67.2l-1.8,0.9c-17.5-34.3-32.7-55.4-39.2-60.3C221.9,178.4,219,177.6,218,175.5L218,175.5z"/>
	<g>
		<defs>
			<path id="SVGID_7_" d="M218,175.5c-1.8-3.5,2.4-9.1,9.4-12.7c6.9-3.5,14-3.6,15.8-0.1c1,2,0,4.8-2.4,7.5
				c0.1,8.1,8.3,32.9,25.8,67.2l-1.8,0.9c-17.5-34.3-32.7-55.4-39.2-60.3C221.9,178.4,219,177.6,218,175.5L218,175.5z"/>
		</defs>
		<clipPath id="SVGID_8_">
			<use xlink:href="#SVGID_7_"  overflow="visible"/>
		</clipPath>
		<path clip-path="url(#SVGID_8_)" fill="#A02031" d="M252.9,217.2c-9.1-18.9-3.1-15.5-3.1-15.5l-6.8-51l-34.8,17.7L252.9,217.2
			L252.9,217.2z"/>
	</g>
	<path fill="none" stroke="#400D13" stroke-width="2" stroke-miterlimit="3.8637" d="M218,175.5c-1.8-3.5,2.4-9.1,9.4-12.7
		c6.9-3.5,14-3.6,15.8-0.1c1,2,0,4.8-2.4,7.5c0.1,8.1,8.3,32.9,25.8,67.2l-1.8,0.9c-17.5-34.3-32.7-55.4-39.2-60.3
		C221.9,178.4,219,177.6,218,175.5L218,175.5z"/>
	<path fill="#A02031" d="M261.6,246.1c-1.8-3.5-0.4-7.8,3.1-9.5c3.5-1.8,7.8-0.4,9.5,3.1c1.8,3.5,0.4,7.8-3.1,9.5
		C267.7,250.9,263.4,249.6,261.6,246.1L261.6,246.1z"/>
	<g>
		<defs>
			<path id="SVGID_9_" d="M261.6,246.1c-1.8-3.5-0.4-7.8,3.1-9.5c3.5-1.8,7.8-0.4,9.5,3.1c1.8,3.5,0.4,7.8-3.1,9.5
				C267.7,250.9,263.4,249.6,261.6,246.1L261.6,246.1z"/>
		</defs>
		<clipPath id="SVGID_10_">
			<use xlink:href="#SVGID_9_"  overflow="visible"/>
		</clipPath>
		<path clip-path="url(#SVGID_10_)" fill="#FFFFFF" d="M265.5,242c-0.8-1.5-0.2-3.4,1.4-4.2c1.5-0.8,3.4-0.2,4.2,1.4
			c0.8,1.5,0.2,3.4-1.4,4.2C268.2,244.2,266.3,243.6,265.5,242L265.5,242z"/>
	</g>
	<path fill="none" stroke="#400D13" stroke-width="2" stroke-miterlimit="3.8637" d="M261.6,246.1c-1.8-3.5-0.4-7.8,3.1-9.5
		c3.5-1.8,7.8-0.4,9.5,3.1c1.8,3.5,0.4,7.8-3.1,9.5C267.7,250.9,263.4,249.6,261.6,246.1L261.6,246.1z M188.7,211.7
		c-7.1-13.9,9.7-36.8,37.6-51c27.9-14.2,56.3-14.4,63.4-0.5"/>
	<polygon fill="#FFFFFF" points="159.8,114.2 162.7,156.2 17,233.3 14.8,232.2 4.4,187.6 157.5,113.1 159.8,114.2 	"/>
	<g>
		<defs>
			<polygon id="SVGID_11_" points="159.8,114.2 162.7,156.2 17,233.3 14.8,232.2 4.4,187.6 157.5,113.1 159.8,114.2 			"/>
		</defs>
		<clipPath id="SVGID_12_">
			<use xlink:href="#SVGID_11_"  overflow="visible"/>
		</clipPath>
		<polygon clip-path="url(#SVGID_12_)" fill="#BAC7BF" stroke="#400D13" stroke-miterlimit="3.8637" points="17.6,233.8 7.1,189.2 
			160.3,114.7 163.2,156.7 17.6,233.8 		"/>
	</g>
	<polygon fill="none" stroke="#400D13" stroke-width="2" stroke-miterlimit="3.8637" points="159.8,114.2 162.7,156.2 17,233.3 
		14.8,232.2 4.4,187.6 157.5,113.1 159.8,114.2 	"/>
	<path fill="none" stroke="#400D13" stroke-width="6" stroke-linecap="round" stroke-miterlimit="3.8637" d="M316.9,242.5
		c0,17.8-9.6,35-26.4,43.9c-16.8,9-36.5,7.2-51.2-2.8 M302.7,242.5c0,12.7-6.8,25-18.8,31.4c-12,6.4-26.1,5.2-36.6-2 M288.6,242.4
		c0.1,7.7-4.1,15-11.3,18.9c-7.2,3.8-15.6,3.1-22-1.2"/>
</g>
</svg>
